PathFileType	4	(X/Y/Z)	C:\Users\86182\Documents\cortex\Trimmed_M3_L12.trc
DataRate	CameraRate	NumFrames	NumMarkers	Units	OrigDataRate	OrigDataStartFrame	OrigNumFrames
100.00	100.00	       56	2	mm	100.00	361	       901
Frame#	Time	gripper			box			
		X1	Y1	Z1	X2	Y2	Z2	

361	3.600	273.65384	149.76991	292.37540	275.33044	147.81812	156.38878	
362	3.610	273.59656	149.78806	292.47650	275.40787	147.85020	156.49493	
363	3.620	273.53021	149.77461	292.63220	275.40295	147.86430	156.64613	
364	3.630	273.47342	149.78169	292.65924	275.42502	147.81975	156.77367	
365	3.640	273.52899	149.81561	292.68924	275.41467	147.75410	156.92879	
366	3.650	273.50897	149.81712	292.80093	275.40515	147.75517	156.94035	
367	3.660	273.50494	149.81198	292.81573	275.11990	147.81534	157.12527	
368	3.670	273.47217	149.82535	292.87323	274.95804	147.91002	157.26711	
369	3.680	273.39401	149.85260	292.92673	274.98215	147.90436	157.30437	
370	3.690	273.34549	149.86047	292.94708	274.92993	147.92712	157.34383	
371	3.700	273.34454	149.85672	292.96292	275.10968	147.97211	157.37306	
372	3.710	273.34372	149.86162	292.98453	275.00375	147.94583	157.41856	
373	3.720	273.39307	149.85112	293.01172	275.07172	147.94168	157.42296	
374	3.730	273.40704	149.85518	293.02603	275.14804	147.92867	157.42996	
375	3.740	273.38113	149.85538	293.01019	275.12271	147.91887	157.41833	
376	3.750	273.39963	149.84593	293.00439	275.17377	147.91678	157.45378	
377	3.760	273.44318	149.86017	293.04135	275.15244	147.91162	157.44801	
378	3.770	273.41104	149.85010	293.01202	275.12973	147.91219	157.43361	
379	3.780	273.42035	149.85118	293.02927	275.11859	147.90134	157.41296	
380	3.790	273.45532	149.84164	293.00357	275.13443	147.90706	157.42534	
381	3.800	273.41586	149.83818	292.96954	275.12405	147.90642	157.40604	
382	3.810	273.43143	149.84064	292.97302	275.07901	147.89708	157.41634	
383	3.820	273.43256	149.83533	292.95639	275.03348	147.89064	157.39445	
384	3.830	273.43317	149.83778	292.97964	275.11572	147.88213	157.44644	
385	3.840	273.47559	149.84361	292.99802	275.14499	147.91306	157.40475	
386	3.850	273.42896	149.83614	292.96622	275.18100	147.92413	157.38989	
387	3.860	273.46481	149.82661	292.91873	274.95703	147.82227	157.32999	
388	3.870	273.51471	149.81004	292.89352	274.99402	147.81612	157.31126	
389	3.880	273.45270	149.79854	292.87048	274.99863	147.76744	157.24878	
390	3.890	273.52817	149.79099	292.83176	275.05212	147.73380	157.16620	
391	3.900	273.49246	149.80478	292.83478	274.97025	147.67599	157.11980	
392	3.910	273.44055	149.78421	292.79327	274.98108	147.67078	157.10318	
393	3.920	273.44891	149.78783	292.79617	274.98251	147.66650	157.10696	
394	3.930	273.46558	149.79501	292.80200	274.92477	147.68149	157.13017	
395	3.940	273.50269	149.81215	292.81699	274.97543	147.66710	157.11121	
396	3.950	273.47745	149.80954	292.83759	274.99164	147.72137	157.14532	
397	3.960	273.43460	149.80623	292.87094	275.02722	147.72783	157.15244	
398	3.970	273.46866	149.79173	292.87006	275.03406	147.75005	157.21024	
399	3.980	273.46866	149.79173	292.87006	275.12234	147.72137	157.20895	
400	3.990	273.47028	149.79182	292.86887	275.15451	147.69925	157.16795	
401	4.000	273.47586	149.79184	292.86514	275.23077	147.66748	157.10556	
402	4.010	273.53262	149.79071	292.82922	275.22601	147.67313	157.04736	
403	4.020	273.53711	149.79634	292.81784	275.21423	147.67030	157.04329	
404	4.030	273.53418	149.78870	292.81250	275.05817	147.65070	157.07228	
405	4.040	273.54074	149.79709	292.81430	275.07346	147.65259	157.06454	
406	4.050	273.55667	149.79047	292.81366	274.97067	147.68115	157.11877	
407	4.060	273.50952	149.79507	292.81927	275.03540	147.68556	157.10426	
408	4.070	273.48959	149.79282	292.85458	275.06842	147.70709	157.11774	
409	4.080	273.47675	149.79214	292.86411	275.04041	147.73929	157.17747	
410	4.090	273.47028	149.79182	292.86887	275.07440	147.71785	157.13841	
411	4.100	273.46866	149.79173	292.87006	275.11575	147.72083	157.14949	
412	4.110	273.48044	149.79156	292.86252	275.06448	147.71661	157.15886	
413	4.120	273.48276	149.79143	292.86121	275.05621	147.71986	157.13652	
414	4.130	273.49493	149.80260	292.83640	275.05307	147.71375	157.12161	
415	4.140	273.52725	149.80193	292.81601	275.05811	147.68994	157.09879	
416	4.150	273.51166	149.80687	292.81891	275.09570	147.67079	157.06389	
